<svg width="254" height="102" viewBox="0 0 254 102" fill="none" xmlns="http://www.w3.org/2000/svg">
<path d="M101.275 55.2556C105.105 53.3769 104.974 47.8742 101.06 46.1788L12.9875 8.02687C9.68597 6.59671 6 9.01695 6 12.6149L6 93.9775C6 97.678 9.88016 100.096 13.2023 98.4664L101.275 55.2556Z" fill="#0EB551"/>
<path d="M53.5894 28.7554C56.8499 27.2195 60.6152 29.5331 60.7182 33.1358L61.7851 70.4778C61.8872 74.0509 58.3157 76.5738 54.9821 75.2834L10.8831 58.2128C6.7831 56.6257 6.58003 50.9003 10.5573 49.0267L53.5894 28.7554Z" fill="#111111"/>
<path d="M115.625 10.0078L127.424 38.2427L139.267 10.0078H142.871V42H140.168V28.0693L140.388 13.7871L128.479 42H126.391L114.526 13.897L114.746 27.9814V42H112.043V10.0078H115.625ZM148.913 29.7612C148.913 27.4761 149.353 25.418 150.231 23.5869C151.125 21.7559 152.377 20.335 153.989 19.3242C155.615 18.2988 157.453 17.7861 159.504 17.7861C162.668 17.7861 165.231 18.8994 167.194 21.126C169.157 23.3379 170.139 26.2749 170.139 29.937V30.4863C170.139 32.7861 169.692 34.8589 168.798 36.7046C167.919 38.5356 166.674 39.9492 165.063 40.9453C163.452 41.9414 161.613 42.4395 159.548 42.4395C156.398 42.4395 153.835 41.3335 151.857 39.1216C149.895 36.895 148.913 33.9507 148.913 30.2886V29.7612ZM151.55 30.4863C151.55 33.3281 152.282 35.6646 153.747 37.4956C155.227 39.312 157.16 40.2202 159.548 40.2202C161.921 40.2202 163.84 39.312 165.305 37.4956C166.784 35.6646 167.524 33.2549 167.524 30.2666V29.7612C167.524 27.9448 167.187 26.2822 166.513 24.7734C165.839 23.2646 164.895 22.1001 163.679 21.2798C162.463 20.4448 161.071 20.0273 159.504 20.0273C157.16 20.0273 155.249 20.9502 153.769 22.7959C152.29 24.627 151.55 27.0293 151.55 30.0029V30.4863ZM182.641 38.3745L189.87 18.2256H192.573L183.696 42H181.564L172.644 18.2256H175.346L182.641 38.3745ZM199.846 42H197.209V18.2256H199.846V42ZM196.748 11.3481C196.748 10.8501 196.909 10.4326 197.231 10.0957C197.553 9.74414 197.993 9.56836 198.549 9.56836C199.106 9.56836 199.545 9.74414 199.868 10.0957C200.205 10.4326 200.373 10.8501 200.373 11.3481C200.373 11.8462 200.205 12.2637 199.868 12.6006C199.545 12.9375 199.106 13.106 198.549 13.106C197.993 13.106 197.553 12.9375 197.231 12.6006C196.909 12.2637 196.748 11.8462 196.748 11.3481ZM216.215 42.4395C214.194 42.4395 212.363 41.9414 210.722 40.9453C209.096 39.9492 207.829 38.5649 206.921 36.7925C206.013 35.0054 205.559 33.0059 205.559 30.7939V29.8491C205.559 27.564 205.998 25.5059 206.877 23.6748C207.771 21.8438 209.008 20.4082 210.59 19.3682C212.172 18.3135 213.886 17.7861 215.732 17.7861C218.618 17.7861 220.903 18.7749 222.587 20.7524C224.287 22.7153 225.136 25.4033 225.136 28.8164V30.2886H208.173V30.7939C208.173 33.4893 208.942 35.7378 210.48 37.5396C212.033 39.3267 213.981 40.2202 216.325 40.2202C217.731 40.2202 218.969 39.9639 220.039 39.4512C221.123 38.9385 222.104 38.1182 222.983 36.9902L224.631 38.2427C222.697 41.0405 219.892 42.4395 216.215 42.4395ZM215.732 20.0273C213.754 20.0273 212.084 20.7524 210.722 22.2026C209.375 23.6528 208.554 25.6011 208.261 28.0474H222.521V27.7617C222.448 25.4766 221.796 23.6162 220.566 22.1807C219.335 20.7451 217.724 20.0273 215.732 20.0273ZM244.494 35.9575C244.494 34.6538 243.967 33.6064 242.912 32.8154C241.872 32.0244 240.297 31.4092 238.188 30.9697C236.079 30.5156 234.438 30.0029 233.266 29.4316C232.109 28.8457 231.245 28.1353 230.673 27.3003C230.117 26.4653 229.838 25.4546 229.838 24.2681C229.838 22.3931 230.622 20.8477 232.189 19.6318C233.757 18.4014 235.764 17.7861 238.21 17.7861C240.861 17.7861 242.985 18.4453 244.582 19.7637C246.193 21.0674 246.999 22.7739 246.999 24.8833H244.362C244.362 23.4917 243.776 22.3345 242.604 21.4116C241.447 20.4888 239.982 20.0273 238.21 20.0273C236.481 20.0273 235.09 20.4155 234.035 21.1919C232.995 21.9536 232.475 22.9497 232.475 24.1802C232.475 25.3667 232.907 26.2896 233.771 26.9487C234.65 27.5933 236.24 28.1865 238.54 28.7285C240.854 29.2705 242.583 29.8491 243.725 30.4644C244.882 31.0796 245.739 31.8193 246.296 32.6836C246.853 33.5479 247.131 34.5952 247.131 35.8257C247.131 37.8325 246.318 39.4365 244.692 40.6377C243.081 41.8389 240.971 42.4395 238.364 42.4395C235.595 42.4395 233.347 41.7729 231.618 40.4399C229.904 39.0923 229.047 37.3931 229.047 35.3423H231.684C231.787 36.8804 232.431 38.0815 233.618 38.9458C234.819 39.7954 236.401 40.2202 238.364 40.2202C240.195 40.2202 241.674 39.8174 242.802 39.0117C243.93 38.2061 244.494 37.188 244.494 35.9575ZM122.133 58.1172H124.252V75.6001C124.252 77.9585 123.569 79.8384 122.202 81.2397C120.846 82.6411 119.023 83.3418 116.733 83.3418C114.318 83.3418 112.46 82.7095 111.162 81.4448C109.863 80.1802 109.213 78.4142 109.213 76.147H111.315C111.315 77.9471 111.788 79.3029 112.734 80.2144C113.68 81.1144 115.013 81.5645 116.733 81.5645C118.317 81.5645 119.604 81.0404 120.595 79.9922C121.598 78.944 122.111 77.5199 122.133 75.7197V58.1172ZM144.504 76.8818C144.504 75.5033 144.02 74.4152 143.051 73.6177C142.083 72.8088 140.311 72.0454 137.736 71.3276C135.161 70.5985 133.282 69.8066 132.097 68.9521C130.41 67.7445 129.567 66.1608 129.567 64.2012C129.567 62.2985 130.348 60.7547 131.909 59.5698C133.481 58.3735 135.486 57.7754 137.924 57.7754C139.576 57.7754 141.052 58.0944 142.351 58.7324C143.661 59.3704 144.675 60.2591 145.393 61.3984C146.11 62.5378 146.469 63.8081 146.469 65.2095H144.35C144.35 63.5119 143.769 62.1504 142.607 61.125C141.445 60.0882 139.884 59.5698 137.924 59.5698C136.022 59.5698 134.506 59.9971 133.378 60.8516C132.25 61.6947 131.687 62.7998 131.687 64.167C131.687 65.4316 132.194 66.4627 133.208 67.2603C134.222 68.0578 135.845 68.7642 138.078 69.3794C140.311 69.9832 142.003 70.6156 143.154 71.2764C144.305 71.9258 145.17 72.7062 145.751 73.6177C146.333 74.5291 146.623 75.6058 146.623 76.8477C146.623 78.8073 145.837 80.3796 144.265 81.5645C142.704 82.7493 140.642 83.3418 138.078 83.3418C136.324 83.3418 134.711 83.0285 133.242 82.4019C131.783 81.7752 130.673 80.8979 129.909 79.77C129.157 78.6421 128.781 77.349 128.781 75.8906H130.883C130.883 77.6452 131.538 79.0295 132.849 80.0435C134.159 81.0575 135.902 81.5645 138.078 81.5645C140.015 81.5645 141.57 81.1372 142.744 80.2827C143.917 79.4282 144.504 78.2946 144.504 76.8818Z" fill="#0EB551"/>
</svg>
